<svg id="Groupe_68" data-name="Groupe 68" xmlns="http://www.w3.org/2000/svg" xmlns:xlink="http://www.w3.org/1999/xlink" width="1018.534" height="361.015" viewBox="0 0 1018.534 361.015">
  <defs>
    <clipPath id="clip-path">
      <rect id="Rectangle_105" data-name="Rectangle 105" width="1018.534" height="361.015" fill="none"/>
    </clipPath>
  </defs>
  <g id="Groupe_52" data-name="Groupe 52" clip-path="url(#clip-path)">
    <path id="Tracé_134" data-name="Tracé 134" d="M100.185,36.916A33.009,33.009,0,0,1,97.116,51,36.881,36.881,0,0,1,88.8,62.559a40.644,40.644,0,0,1-12.239,7.9A38.163,38.163,0,0,1,61.645,73.4,35.245,35.245,0,0,1,47.254,70.46a40.372,40.372,0,0,1-11.839-7.9A36.319,36.319,0,0,1,27.29,51a33.986,33.986,0,0,1-2.939-14.085A35.164,35.164,0,0,1,27.29,22.5a37.159,37.159,0,0,1,8.124-11.757,38.2,38.2,0,0,1,11.839-7.9A36.59,36.59,0,0,1,61.645,0a39.637,39.637,0,0,1,14.92,2.845,38.516,38.516,0,0,1,12.239,7.9A37.718,37.718,0,0,1,97.116,22.5a34.143,34.143,0,0,1,3.069,14.414" transform="translate(261.947 -0.01)" fill="#fff"/>
    <rect id="Rectangle_104" data-name="Rectangle 104" width="62.83" height="184.987" transform="translate(291.966 111.335)" fill="#fff"/>
    <path id="Tracé_135" data-name="Tracé 135" d="M161.06,7q23.9,0,43.6,7.489a93.842,93.842,0,0,1,55.623,55.458q7.83,19.964,7.819,44.9,0,25.149-7.819,45.312a97.352,97.352,0,0,1-21.868,34.26,96.259,96.259,0,0,1-33.755,21.692q-19.717,7.6-43.6,7.619-24.161,0-43.889-7.619a97.961,97.961,0,0,1-34.084-21.692,96.057,96.057,0,0,1-22.092-34.26q-7.83-20.175-7.818-45.312,0-24.937,7.818-44.9A95.465,95.465,0,0,1,83.086,35.982,98.011,98.011,0,0,1,117.17,14.49Q136.922,7,161.06,7m0,170.079c14.45,0,25.113-5.1,31.909-15.3q10.246-15.308,10.264-46.523,0-31.215-10.264-46.429c-6.8-10.135-17.459-15.2-31.909-15.2-14.885,0-25.736,5.067-32.638,15.2s-10.358,25.619-10.358,46.429,3.468,36.318,10.358,46.523,17.753,15.3,32.638,15.3" transform="translate(572.022 75.312)" fill="#fff"/>
    <path id="Tracé_136" data-name="Tracé 136" d="M221.119,56.252a16.543,16.543,0,0,1-5.173,5.467,13.469,13.469,0,0,1-7.007,1.634,22.114,22.114,0,0,1-8.9-1.94c-3.01-1.282-6.208-2.669-9.641-4.15A108.039,108.039,0,0,0,178.723,53.1a52.045,52.045,0,0,0-14.79-1.916q-11.975,0-18.341,4.562a14.7,14.7,0,0,0-6.408,12.662,12.679,12.679,0,0,0,4.162,9.735A38.01,38.01,0,0,0,154.4,84.927a149.757,149.757,0,0,0,15.613,5.585c5.8,1.752,11.781,3.715,17.847,5.89a158.831,158.831,0,0,1,17.847,7.607,67.3,67.3,0,0,1,15.613,10.734,48.071,48.071,0,0,1,11.052,15.508c2.74,6.078,4.162,13.391,4.162,21.892a71.81,71.81,0,0,1-5.714,28.793,60.634,60.634,0,0,1-16.93,22.7q-11.234,9.523-27.747,14.8t-38.011,5.279a115.2,115.2,0,0,1-21.516-2.034,148.478,148.478,0,0,1-20.751-5.479,111.091,111.091,0,0,1-18.541-8.218A79.664,79.664,0,0,1,72.7,197.761l14.626-23.115a20.585,20.585,0,0,1,6.267-6.384,17.587,17.587,0,0,1,9.535-2.328,19.878,19.878,0,0,1,9.829,2.434c2.9,1.611,6.031,3.374,9.406,5.255a79,79,0,0,0,11.875,5.291q6.79,2.416,17.13,2.422a43.492,43.492,0,0,0,12.38-1.517,21.949,21.949,0,0,0,8.112-4.162,16.423,16.423,0,0,0,5.879-12.568,13.679,13.679,0,0,0-4.268-10.335,37.417,37.417,0,0,0-11.146-7,138.216,138.216,0,0,0-15.708-5.479q-8.853-2.522-17.953-5.773a142.985,142.985,0,0,1-17.953-7.807A62.221,62.221,0,0,1,95,115.143a53.532,53.532,0,0,1-11.146-17.13C81.009,91.276,79.6,83.081,79.6,73.488a63.571,63.571,0,0,1,5.173-25.442,59.021,59.021,0,0,1,15.508-21.186q10.352-9.135,25.936-14.5Q141.859,6.983,162.71,7a118.436,118.436,0,0,1,22.009,2.01,112.951,112.951,0,0,1,19.976,5.69,95.233,95.233,0,0,1,17.013,8.606,82.11,82.11,0,0,1,13.6,10.84Z" transform="translate(782.013 75.312)" fill="#fff"/>
    <path id="Tracé_137" data-name="Tracé 137" d="M0,295.42H68.52V.033H0Z" transform="translate(-0.002 0.356)" fill="#fff"/>
    <path id="Tracé_138" data-name="Tracé 138" d="M108.659,164.162a53.181,53.181,0,0,0-11.687-13.286,53.377,53.377,0,0,0-14.12-7.807,58.449,58.449,0,0,0,10.37-7.09,61.465,61.465,0,0,0,9.758-10.746L193.593.15H134A46.022,46.022,0,0,0,116.83,3q-7.019,2.839-12.463,10.746L41.3,105.435l-15.108,19.9a60.456,60.456,0,0,1-9.77,10.37,58.9,58.9,0,0,1-10.358,6.854c5.15,1.822,8.5,2.61,12.792,5.8,4.221,3.21,16.531,13.873,20.093,19.2l15.743,23.009,58.186,92.4a34.521,34.521,0,0,0,4.291,5.385,20.6,20.6,0,0,0,5.208,3.939,25.482,25.482,0,0,0,7.2,2.434,52.627,52.627,0,0,0,10.1.823h61.172Z" transform="translate(65.253 1.615)" fill="#fff"/>
    <path id="Tracé_139" data-name="Tracé 139" d="M110.057,164.116a53.385,53.385,0,0,0-11.675-13.286,53.746,53.746,0,0,0-14.12-7.807,58.719,58.719,0,0,0,10.358-7.078,62.069,62.069,0,0,0,9.77-10.758L194.99.1h-59.6A45.914,45.914,0,0,0,118.24,2.949Q111.2,5.789,105.766,13.707L42.7,105.389l-15.108,19.9a60,60,0,0,1-9.77,10.37,58.256,58.256,0,0,1-10.358,6.854c5.15,1.822,8.5,2.622,12.792,5.8,4.221,3.21,16.531,13.873,20.093,19.2l15.743,23.009,58.186,92.4a34.661,34.661,0,0,0,4.291,5.385,20.6,20.6,0,0,0,5.208,3.939,25.118,25.118,0,0,0,7.2,2.434,52.629,52.629,0,0,0,10.1.823h61.172Z" transform="translate(80.291 1.12)" fill="#fff"/>
    <path id="Tracé_140" data-name="Tracé 140" d="M25.036,5.033,39.979,17.978c2.728,2.293,8.206,5.843,9.794,7.7a36.923,36.923,0,0,1,5.6,8.771c1.811-3.8,2.657-6.314,5.491-9.37,2.845-3.01,11.546-10.652,16.06-13" transform="translate(269.316 54.142)" fill="#fff"/>
    <path id="Tracé_141" data-name="Tracé 141" d="M34.484,286.974V10.916h38.81A17.389,17.389,0,0,1,83.1,13.538a14.1,14.1,0,0,1,5.561,7.877l4.632,15.367A107.359,107.359,0,0,1,106.32,24.648a86.442,86.442,0,0,1,14.967-9.382,82.21,82.21,0,0,1,17.177-6.173,85.74,85.74,0,0,1,20.116-2.21,64.4,64.4,0,0,1,30.3,7.266,69.449,69.449,0,0,1,24.043,21.01q10.123,13.738,15.9,33.649,5.714,19.911,5.749,45.171a139.33,139.33,0,0,1-6.572,43.643,109.329,109.329,0,0,1-18.388,34.766,84.857,84.857,0,0,1-28.288,23.044,80.094,80.094,0,0,1-36.482,8.289c-10.922,0-20.069-1.564-27.5-4.644a74.82,74.82,0,0,1-20.2-12.545v80.442ZM136.748,54.77a55.349,55.349,0,0,0-12.439,1.305,45.716,45.716,0,0,0-10.287,3.751,38.123,38.123,0,0,0-8.783,6.161,89.874,89.874,0,0,0-8.1,8.583V163.5a39.733,39.733,0,0,0,15.367,11,48.6,48.6,0,0,0,17.365,3.127,37.033,37.033,0,0,0,15.99-3.433,32.661,32.661,0,0,0,12.627-11.016q5.326-7.566,8.395-19.705,3-12.116,3.022-29.5a136.366,136.366,0,0,0-2.434-27.9q-2.416-11.3-6.772-18.294a26.325,26.325,0,0,0-10.405-9.994,29.786,29.786,0,0,0-13.544-3.022" transform="translate(370.95 74.043)" fill="#fff"/>
  </g>
</svg>
